<?xml version="1.0" encoding="UTF-8" standalone="no"?>
<!-- Created with Inkscape (http://www.inkscape.org/) -->

<svg
   xmlns:dc="http://purl.org/dc/elements/1.1/"
   xmlns:cc="http://creativecommons.org/ns#"
   xmlns:rdf="http://www.w3.org/1999/02/22-rdf-syntax-ns#"
   xmlns:svg="http://www.w3.org/2000/svg"
   xmlns="http://www.w3.org/2000/svg"
   xmlns:sodipodi="http://sodipodi.sourceforge.net/DTD/sodipodi-0.dtd"
   xmlns:inkscape="http://www.inkscape.org/namespaces/inkscape"
   width="500"
   height="500"
   id="svg2"
   version="1.1"
   inkscape:version="0.48.2 r9819"
   sodipodi:docname="umbrella_cicle.svg"
   inkscape:export-filename="/Volumes/Data/Umbrella/umbrella_cicle.png"
   inkscape:export-xdpi="100"
   inkscape:export-ydpi="100">
  <defs
     id="defs4" />
  <sodipodi:namedview
     id="base"
     pagecolor="#ffffff"
     bordercolor="#666666"
     borderopacity="1.0"
     inkscape:pageopacity="0.0"
     inkscape:pageshadow="2"
     inkscape:zoom="1.4719298"
     inkscape:cx="439.21932"
     inkscape:cy="250"
     inkscape:document-units="px"
     inkscape:current-layer="layer1"
     showgrid="false"
     inkscape:window-width="1680"
     inkscape:window-height="1002"
     inkscape:window-x="0"
     inkscape:window-y="0"
     inkscape:window-maximized="1" />
  <metadata
     id="metadata7">
    <rdf:RDF>
      <cc:Work
         rdf:about="">
        <dc:format>image/svg+xml</dc:format>
        <dc:type
           rdf:resource="http://purl.org/dc/dcmitype/StillImage" />
        <dc:title></dc:title>
      </cc:Work>
    </rdf:RDF>
  </metadata>
  <g
     inkscape:label="Layer 1"
     inkscape:groupmode="layer"
     id="layer1"
     transform="translate(0,-552.36224)">
    <rect
       style="fill:#ffffff;fill-opacity:1;stroke:#cccccc;stroke-width:0.70866143999999998;stroke-linecap:round;stroke-linejoin:round;stroke-miterlimit:4;stroke-opacity:1;stroke-dasharray:none"
       id="rect3035"
       width="509.53516"
       height="513.61145"
       x="-3.3969011"
       y="-4.7795076"
       transform="translate(0,552.36224)" />
    <g
       id="g3026"
       transform="translate(-10.487113,1.5699286e-5)">
      <g
         transform="matrix(1.3476424,0,0,1.3476424,-131.85502,-27.082417)"
         id="g3927">
        <path
           style="fill:none;stroke:#333333;stroke-width:12.75893974;stroke-linecap:round;stroke-linejoin:miter;stroke-miterlimit:4;stroke-opacity:1;stroke-dasharray:none"
           d="m 230.90346,485.91147 c 0,0 62.83008,132.0969 99.10795,207.51646 7.93614,16.94499 38.26796,8.1644 24.33453,-15.56117"
           id="path3787"
           inkscape:connector-curvature="0"
           sodipodi:nodetypes="ccc" />
        <path
           style="fill:#ee0000;fill-opacity:1;stroke:#000000;stroke-width:1.91384101;stroke-linecap:butt;stroke-linejoin:miter;stroke-miterlimit:4;stroke-opacity:1;stroke-dasharray:none"
           d="m 150.98365,645.80754 c -12.35193,-94.2587 63.04478,-146.35822 79.84807,-157.84542 -24.34192,45.66885 -35.68887,90.35235 -15.2073,132.62245 -23.18785,-4.74596 -50.38931,-8.38614 -64.64077,25.22297 z"
           id="path3007"
           inkscape:connector-curvature="0"
           sodipodi:nodetypes="cccc" />
        <path
           sodipodi:nodetypes="cccc"
           inkscape:connector-curvature="0"
           id="path3777"
           d="m 395.52516,520.16803 c -63.00858,-57.27275 -143.48441,-38.68068 -163.04284,-32.59389 49.18237,7.48502 87.58843,26.87222 117.36591,69.63621 9.17096,-20.32483 -0.0211,-32.68163 45.67693,-37.04232 z"
           style="fill:#0000ee;fill-opacity:1;stroke:#000000;stroke-width:1.91384101;stroke-linecap:butt;stroke-linejoin:miter;stroke-miterlimit:4;stroke-opacity:1;stroke-dasharray:none" />
        <path
           inkscape:transform-center-y="119.14959"
           inkscape:transform-center-x="7.2174612"
           style="fill:#00ee00;fill-opacity:1;stroke:#000000;stroke-width:1.91384101;stroke-linecap:butt;stroke-linejoin:miter;stroke-miterlimit:4;stroke-opacity:1;stroke-dasharray:none"
           d="m 283.15016,598.64284 c -37.757,-52.5936 -52.22793,-111.89981 -51.02058,-111.94355 23.63324,1.31463 84.6039,19.09162 117.766,70.4791 0.11645,0.81074 -51.66709,-5.71168 -66.74542,41.46445 z"
           id="path3781"
           inkscape:connector-curvature="0"
           sodipodi:nodetypes="cccc" />
        <path
           sodipodi:nodetypes="cccc"
           inkscape:connector-curvature="0"
           id="path3779"
           d="m 216.26906,620.69724 c -28.66873,-53.07263 4.95288,-113.84692 15.14029,-133.86132 7.76094,21.14852 23.16307,68.96754 50.96499,111.67125 -1.25887,0.17482 -48.95477,-21.16438 -66.10528,22.19007 z"
           style="fill:#eeee00;fill-opacity:1;stroke:#000000;stroke-width:1.91384101;stroke-linecap:butt;stroke-linejoin:miter;stroke-miterlimit:4;stroke-opacity:1;stroke-dasharray:none"
           inkscape:transform-center-x="96.14632"
           inkscape:transform-center-y="100.00573" />
      </g>
      <path
         transform="matrix(1.2342478,0,0,1.2342478,-94.775153,398.9487)"
         d="m 471.0061,326.8497 c 0,101.16147 -82.00757,183.16904 -183.16903,183.16904 -101.16147,0 -183.16904,-82.00757 -183.16904,-183.16904 0,-101.16146 82.00757,-183.16904 183.16904,-183.16904 101.16146,0 183.16903,82.00758 183.16903,183.16904 z"
         sodipodi:ry="183.16904"
         sodipodi:rx="183.16904"
         sodipodi:cy="326.8497"
         sodipodi:cx="287.83707"
         id="path3876"
         style="fill:none;stroke:#333333;stroke-width:10;stroke-linecap:round;stroke-linejoin:round;stroke-miterlimit:4;stroke-opacity:1;stroke-dasharray:none"
         sodipodi:type="arc" />
    </g>
  </g>
</svg>
